Coordinates
version=1
nRows=10
nColumns=40
inDegrees=yes

Units are S.I. units (second, meters, Newtons, ...)
If the header above contains a line with 'inDegrees', this indicates whether rotational values are in degrees (yes) or radians (no).

endheader
time	pelvis_tilt	pelvis_list	pelvis_rotation	pelvis_tx	pelvis_ty	pelvis_tz	hip_flexion_r	hip_adduction_r	hip_rotation_r	knee_angle_r	knee_angle_r_beta	ankle_angle_r	subtalar_angle_r	mtp_angle_r	hip_flexion_l	hip_adduction_l	hip_rotation_l	knee_angle_l	knee_angle_l_beta	ankle_angle_l	subtalar_angle_l	mtp_angle_l	lumbar_extension	lumbar_bending	lumbar_rotation	arm_flex_r	arm_add_r	arm_rot_r	elbow_flex_r	pro_sup_r	wrist_flex_r	wrist_dev_r	arm_flex_l	arm_add_l	arm_rot_l	elbow_flex_l	pro_sup_l	wrist_flex_l	wrist_dev_l
      7.50000000000000000000	      8.97542131721842473269	     -3.37909979054139020249	   -168.78892110796917336302	      0.32817530490317220471	      0.71796345664790928165	     -0.61486095341550517368	     65.42889447128332847115	    -19.74205519203796299621	      3.51716345337247515701	     76.79385055689765238185	      1.34030553750234515675	     25.66364195209698095823	      0.00000000000000000000	      0.00000000000000000000	     65.86052835818443895732	     -1.70245348808587881884	      0.95619238760705704827	     74.17602675481712992678	      1.29461589291896350673	     19.74832311356352931853	      0.00000000000000000000	      0.00000000000000000000	    -61.66122587997138282390	      8.27620373912323081811	    -10.42829487661683707245	     59.94914519832554589129	      0.07476862507894181664	     27.63345640715164464041	      4.43530467403010764116	     16.84784058314349053376	      0.00000000000000000000	      0.00000000000000000000	     66.15949777762509143031	    -12.40987787053936663995	     79.22094838022744056616	      6.54639843683582256517	     75.29545298848252343760	      0.00000000000000000000	      0.00000000000000000000
      7.50499999999999989342	      9.09628271215477113287	     -3.42609955379584230073	   -168.77871556013099052507	      0.32785750011505915280	      0.71832312294110123307	     -0.61479794555775379994	     65.49682635334734470689	    -19.80590107132526966893	      3.53070061846305716102	     76.72912454058079845254	      1.33917585540591632665	     25.63130723008774225491	      0.00000000000000000000	      0.00000000000000000000	     65.88067524269506236578	     -1.65000253619717018871	      0.89315168401238276275	     74.05600725450543109218	      1.29252115747192597439	     19.69144064259597826094	      0.00000000000000000000	      0.00000000000000000000	    -61.56062997820190219045	      8.26241746334379101313	    -10.54529365788273054250	     60.00894281719737932690	      0.27459301565735250161	     27.60558687747345274488	      4.57525168989780439688	     14.43292203580830168619	      0.00000000000000000000	      0.00000000000000000000	     66.15929556080953943820	    -12.36761019967329566782	     77.78046563291528059381	      6.46364942857736224369	     77.94132108499798050616	      0.00000000000000000000	      0.00000000000000000000
      7.50999999999999978684	      9.17251872707259963136	     -3.59469721017399468366	   -168.87518734658885932731	      0.32743872119836120449	      0.71866114342851128427	     -0.61514908215955932391	     65.63606062586434575223	    -19.79539368870458559968	      3.75369233836458038311	     76.75989149489907958923	      1.33971284005958102270	     25.50819661938603388762	      0.00000000000000000000	      0.00000000000000000000	     65.81961704535339663380	     -1.68387478947019975095	      0.66030287277216015429	     73.96905939694690346187	      1.29100363107997462286	     19.68043563956589281361	      0.00000000000000000000	      0.00000000000000000000	    -61.56141548839776334034	      8.05596621823391068062	    -10.60660225930184452636	     60.20015082698658659410	      0.39773710219735847193	     25.76211395867789732961	      4.42069914963057986057	     15.37460499207120889764	      0.00000000000000000000	      0.00000000000000000000	     66.17839838166305810319	    -12.44525823551275323098	     77.68031017704441865135	      6.55973248870422054324	     78.18149692082840829244	      0.00000000000000000000	      0.00000000000000000000
      7.51499999999999968026	      9.18423806711311918605	     -3.40750808033144503284	   -168.82337376446776033845	      0.32730229547880224095	      0.71921994123835408796	     -0.61472092642160958142	     65.48247477246873415879	    -19.79015808857184666181	      3.48234211953298755660	     76.59237349573396613778	      1.33678909941779666681	     25.46329212565097677157	      0.00000000000000000000	      0.00000000000000000000	     65.82375237783315924389	     -1.68168333703795069844	      0.87865597364284231396	     73.90099461709134232024	      1.28981567656685003342	     19.67544619832494845468	      0.00000000000000000000	      0.00000000000000000000	    -61.58863229180944642849	      8.27373533695362084472	    -10.54912004008945913824	     60.33445351242114895740	      0.50115912687087049715	     25.81645410024355413725	      4.35696904663786099832	     15.51299002623431988468	      0.00000000000000000000	      0.00000000000000000000	     66.15735846846992274095	    -12.42546529804221044913	     77.98853174848221669890	      6.44247769376731049817	     77.55441111275432319871	      0.00000000000000000000	      0.00000000000000000000
      7.51999999999999957367	      9.12398450575796182704	     -3.40549304529424246013	   -168.99168036988908170315	      0.32714768096435492550	      0.71995898120755474903	     -0.61482350715479006098	     65.33007138583683115485	    -19.61604909629963700013	      3.52457909137643943254	     76.42807596201559761084	      1.33392156650150495167	     25.42328332221703846017	      0.00000000000000000000	      0.00000000000000000000	     65.65897594774374113058	     -1.83859564423320964721	      0.79700261793508264674	     73.79755041020901273896	      1.28801023456463936689	     19.66619455372317659680	      0.00000000000000000000	      0.00000000000000000000	    -61.74688892869420442366	      8.16674706395718530416	    -10.41978904463917032786	     60.39131286646056651080	      0.39157767252142672287	     25.94694809555108605537	      4.41727686946570852200	     15.42747196739554915723	      0.00000000000000000000	      0.00000000000000000000	     66.23527331119534267145	    -12.41302027046144651479	     78.19451898678211421156	      6.48532283686861710237	     77.64500052314610911708	      0.00000000000000000000	      0.00000000000000000000
      7.52500000000000035527	      9.21762510095189746551	     -3.42963513964863198069	   -168.81374354086841549361	      0.32679955708450664220	      0.72038119131974964748	     -0.61459882798978104912	     65.32377986630592658912	    -19.85021731612338413697	      3.39445729131305462545	     76.35966167232642476392	      1.33272751189101557046	     25.41923349350735605867	      0.00000000000000000000	      0.00000000000000000000	     65.66362668898879917379	     -1.64009356194248279159	      0.85356706369187096417	     73.66940386144028707349	      1.28577365536355747722	     19.62670936160498769141	      0.00000000000000000000	      0.00000000000000000000	    -61.69350466212566175273	      8.30546692463581592847	    -10.53180428223176257063	     60.38811869907974738680	      0.42625088958620122037	     25.53458337301959701904	      4.55350087553982696420	     14.91275338790243587539	      0.00000000000000000000	      0.00000000000000000000	     66.22934813381198182469	    -12.36803887243895339054	     78.00515307585227731124	      6.39098622677476502218	     78.28442530161422041601	      0.00000000000000000000	      0.00000000000000000000
      7.53000000000000024869	      9.26327684191491940169	     -3.42957902220178079133	   -168.91375905103552668152	      0.32663354628186125339	      0.72105577412018018180	     -0.61453315036184186226	     65.22858354065692765289	    -19.75366866108460328633	      3.40193013632295171433	     76.13585365031431706484	      1.32882132501452843165	     25.44209375104621173591	      0.00000000000000000000	      0.00000000000000000000	     65.59548599848855587879	     -1.69396781018466091595	      0.82022216271374603913	     73.53210348924297079520	      1.28337731180450065338	     19.61169279474005833208	      0.00000000000000000000	      0.00000000000000000000	    -61.73011858285840958160	      8.26693848036652845224	    -10.57077526484326490674	     60.55105503279142453721	      0.59353321186590424219	     25.13276945648784632681	      4.39524208008349237531	     15.45335275800091956455	      0.00000000000000000000	      0.00000000000000000000	     66.13085718694858883282	    -12.28414415423659278304	     76.34108561644360690934	      6.23281902434985912720	     77.60176139307223763808	      0.00000000000000000000	      0.00000000000000000000
      7.53500000000000014211	      9.26736498377198181231	     -3.30361591402780163662	   -168.97227560550510361281	      0.32646189885168874767	      0.72160718683866453826	     -0.61444977926934485346	     65.10829919622256056755	    -19.62647041315249651916	      3.28601438467508444319	     75.98472059515600562918	      1.32618355559341760674	     25.37759927635050161143	      0.00000000000000000000	      0.00000000000000000000	     65.57330196190275728441	     -1.80510569221319228106	      0.90118494917818925405	     73.47514599353524999970	      1.28238321597071047719	     19.57338819361132209451	      0.00000000000000000000	      0.00000000000000000000	    -61.79036983030201213296	      8.32855681950827175797	    -10.44389199223852493503	     60.67908209485513282289	      0.62274061356832222103	     25.19858683887590089512	      4.32970136701584262795	     15.21885148695599632163	      0.00000000000000000000	      0.00000000000000000000	     66.20044340360590240380	    -12.43977242589222775848	     77.08156870351236022998	      6.48365908998085949122	     77.76248138973397772133	      0.00000000000000000000	      0.00000000000000000000
      7.54000000000000003553	      9.25144476346731003957	     -3.36317798994376460087	   -168.97636554926174312641	      0.32611763695577405953	      0.72230410100260888928	     -0.61453830112441909517	     64.99381121674603889460	    -19.65932108267278977110	      3.28703347978806137419	     75.87300616098814032284	      1.32423377089518590211	     25.37952254645418292966	      0.00000000000000000000	      0.00000000000000000000	     65.42070726584491069389	     -1.79715774507167824758	      0.81536845522939027653	     73.33578508789518934918	      1.27995090931873023443	     19.56359741119527129172	      0.00000000000000000000	      0.00000000000000000000	    -61.88782529727646419815	      8.27467439929513126629	    -10.42371754255704274783	     60.65859369162458136771	      0.55283976558807179646	     24.46249229393687940615	      4.53028914269750959676	     15.24755200421011025469	      0.00000000000000000000	      0.00000000000000000000	     66.32511600704818022223	    -12.39410669900109240871	     77.87317254922325560074	      6.41400503278905187443	     78.16426843450585693063	      0.00000000000000000000	      0.00000000000000000000
      7.54499999999999992895	      9.32455128863807125583	     -3.37156452221224922638	   -168.88708791593046498747	      0.32582699909089735124	      0.72270695769048731716	     -0.61444941734615343698	     64.98071040671030118574	    -19.76275608595260990796	      3.22488302443715912915	     75.80258171646086395867	      1.32300463246429678144	     25.37426629406799349908	      0.00000000000000000000	      0.00000000000000000000	     65.41919272019886477665	     -1.70010133468233637366	      0.84216731958628421317	     73.23633644085494154297	      1.27821520299122415310	     19.52791466975433820608	      0.00000000000000000000	      0.00000000000000000000	    -61.85886963248254488690	      8.33594632046614592014	    -10.47307950044831414971	     60.63686571944915471022	      0.55029387871054524783	     24.37222852103300496651	      4.56997638622170931910	     15.09477283890756815765	      0.00000000000000000000	      0.00000000000000000000	     66.33545427308277453449	    -12.37262242225327213418	     77.90945097509070649267	      6.37928429164866450662	     78.20760522266451175710	      0.00000000000000000000	      0.00000000000000000000
